<svg xmlns="http://www.w3.org/2000/svg" version="1.1" xmlns:xlink="http://www.w3.org/1999/xlink" xmlns:svgjs="http://svgjs.dev/svgjs" width="100%" height="100%" viewBox="0 0 1000 600"><rect width="1000" height="600" x="0" y="0" fill="#edf1d6"/><g><circle r="166.66666666666666" cx="496.10392252604163" cy="518.3261927614137" fill="#9dc08b" transform="matrix(0.3794349001429736,0,0,0.3794349001429736,0,103.32895855268825)"/><path d="M473.09771873180824 529.6615383424169L473.09771873180824 593.3261952129567L454.190891210218 593.3261952129567L454.190891210218 443.32619476774795L538.0169953298611 443.32619476774795L538.0169953298611 459.92802325507023L473.09771873180824 459.92802325507023L473.09771873180824 513.08888705806L534.019718523599 513.08888705806L534.019718523599 529.6615383424169L473.09771873180824 529.6615383424169Z " fill="white" transform="matrix(0.3794349001429736,0,0,0.3794349001429736,0,103.32895855268825)"/><path d="M807.2945015203652 487.54321261217603L807.2945015203652 500.6554751789912L781.2308630439964 500.6554751789912L781.2308630439964 591.0201476742204L764.2573207029044 591.0201476742204L764.2573207029044 500.6554751789912L746.1039428752277 500.6554751789912L746.1039428752277 492.745214530299L764.2573207029044 486.9532948688837L764.2573207029044 480.97367410733Q764.2573207029044 467.6468959974994 768.1990438058119 459.36123314853035Q772.1675813515965 451.0487558566843 779.7024398000118 447.1874760824075Q787.2372982484271 443.3261963081306 797.8558176276883 443.3261963081306L797.8558176276883 443.3261963081306Q804.0231394893806 443.3261963081306 809.1446980788728 444.3987740232075Q814.266256668365 445.44453729540754 817.9130208996265 446.81207388213056L817.9130208996265 446.81207388213056L813.4886378249344 460.11203754908416Q810.4049768940881 459.146717605515 806.3291815767959 458.18139766194577Q802.2802007023806 457.21607771837654 798.043518727827 457.21607771837654L798.043518727827 457.21607771837654Q789.5433403358425 457.21607771837654 785.3871016899194 462.92755405116105Q781.2308630439964 468.61221594106865 781.2308630439964 480.7859730071915L781.2308630439964 480.7859730071915L781.2308630439964 487.54321261217603L807.2945015203652 487.54321261217603ZM826.0377970913341 487.54321261217603L843.0113394324262 487.54321261217603L843.0113394324262 591.0201476742204L826.0377970913341 591.0201476742204L826.0377970913341 487.54321261217603ZM834.725676583457 448.74271376926896L834.725676583457 448.74271376926896Q838.5869563577339 448.74271376926896 841.5633595170723 451.34371472833044Q844.5665771192876 453.944715687392 844.5665771192876 459.5489342486688L844.5665771192876 459.5489342486688Q844.5665771192876 464.93863726693024 841.5633595170723 467.6468959974994Q838.5869563577339 470.3551547280686 834.725676583457 470.3551547280686L834.725676583457 470.3551547280686Q830.4621801660264 470.3551547280686 827.5662203353187 467.6468959974994Q824.6702605046111 464.93863726693024 824.6702605046111 459.5489342486688L824.6702605046111 459.5489342486688Q824.6702605046111 453.944715687392 827.5662203353187 451.34371472833044Q830.4621801660264 448.74271376926896 834.725676583457 448.74271376926896ZM925.6534523791017 485.6125727250376L925.6534523791017 485.6125727250376Q944.1822324070552 485.6125727250376 953.6477307426089 494.59541108880666Q963.1132290781625 503.5514350096988 963.1132290781625 523.6354527245139L963.1132290781625 523.6354527245139L963.1132290781625 591.0201476742204L946.3005733943321 591.0201476742204L946.3005733943321 524.7884737682216Q946.3005733943321 512.2393145018218 940.7231692759322 506.07199264012957Q935.1189507146553 499.9046707784374 923.1328947486709 499.9046707784374L923.1328947486709 499.9046707784374Q905.9716513074404 499.9046707784374 899.4021128025945 509.5578702141295Q892.8325742977484 519.2110696498216 892.8325742977484 537.3376330346214L892.8325742977484 537.3376330346214L892.8325742977484 591.0201476742204L875.8322175137794 591.0201476742204L875.8322175137794 487.54321261217603L889.5612122667637 487.54321261217603L892.0549554543177 501.62079512256037L893.0202753978867 501.62079512256037Q896.5061529718869 496.23109210429897 901.6277115613789 492.66477120166826Q906.7224557079942 489.0716358561606 912.9165920125633 487.3555115120376Q919.0839138742556 485.6125727250376 925.6534523791017 485.6125727250376ZM1031.8386461717153 592.9507875613588L1031.8386461717153 592.9507875613588Q1012.5322473003309 592.9507875613588 1000.9484079775004 579.5435661228976Q989.3645686546697 566.1095302415592 989.3645686546697 539.4827884647751L989.3645686546697 539.4827884647751Q989.3645686546697 512.8292322451141 1001.0556657490081 499.2074952636373Q1012.7199484004695 485.6125727250376 1032.0263472718536 485.6125727250376L1032.0263472718536 485.6125727250376Q1040.1511234635614 485.6125727250376 1046.130744225115 487.62365594080677Q1052.1103649866689 489.66155359945293 1056.5615625042378 493.14743117345284Q1060.9859455789301 496.60649430457585 1064.0696065097763 500.86999072200655L1064.0696065097763 500.86999072200655L1065.2494419963607 500.86999072200655Q1065.0349264533454 498.3494330915758 1064.5522664815608 493.4155756022221Q1064.0696065097763 488.50853255574526 1064.0696065097763 485.6125727250376L1064.0696065097763 485.6125727250376L1064.0696065097763 444.2915162516998L1081.069963293745 444.2915162516998L1081.069963293745 591.0201476742204L1067.3677829836377 591.0201476742204L1064.847225353207 577.1302662639746L1064.0696065097763 577.1302662639746Q1060.9859455789301 581.5546493386666 1056.5615625042378 585.1209702412975Q1052.1103649866689 588.7141055868051 1046.0234864536073 590.832446574082Q1039.9366079205458 592.9507875613588 1031.8386461717153 592.9507875613588ZM1034.5469049022845 578.8463906080976L1034.5469049022845 578.8463906080976Q1050.957343942961 578.8463906080976 1057.6073257764378 569.8903666872054Q1064.2841220527916 560.9075283234363 1064.2841220527916 542.7541504957596L1064.2841220527916 542.7541504957596L1064.2841220527916 539.6704895649136Q1064.2841220527916 520.3640906935293 1057.902284648084 510.0405301859141Q1051.5204472433766 499.69015523542197 1034.3592038021459 499.69015523542197L1034.3592038021459 499.69015523542197Q1020.6302090491615 499.69015523542197 1013.7925261155463 510.6036334863295Q1006.9280287390541 521.517111737237 1006.9280287390541 539.858190665052L1006.9280287390541 539.858190665052Q1006.9280287390541 558.3869706930057 1013.7925261155463 568.6300878719901Q1020.6302090491615 578.8463906080976 1034.5469049022845 578.8463906080976ZM1221.6312728545736 453.16709684396125L1221.6312728545736 591.0201476742204L1204.2555138703278 591.0201476742204L1204.2555138703278 526.7191136553599L1133.5726424467598 526.7191136553599L1133.5726424467598 591.0201476742204L1116.1968834625138 591.0201476742204L1116.1968834625138 453.16709684396125L1133.5726424467598 453.16709684396125L1133.5726424467598 511.48851010126793L1204.2555138703278 511.48851010126793L1204.2555138703278 453.16709684396125L1221.6312728545736 453.16709684396125ZM1296.9262284529723 485.6125727250376L1296.9262284529723 485.6125727250376Q1310.2261921199258 485.6125727250376 1319.7989482269872 491.4044923864529Q1329.3448898911718 497.19641204786814 1334.466448480664 507.7076736556218Q1339.5880070701562 518.2457497062524 1339.5880070701562 532.3233322166368L1339.5880070701562 532.3233322166368L1339.5880070701562 542.5664493956212L1268.7174345464496 542.5664493956212Q1269.1196511896035 560.1299094800056 1277.700272910219 569.3004489439131Q1286.3077090737108 578.4709884078206 1301.7528281708185 578.4709884078206L1301.7528281708185 578.4709884078206Q1311.593728706649 578.4709884078206 1319.209030483695 576.64760629219Q1326.8511467036178 574.7974097336821 1334.9491084524486 571.3383466025591L1334.9491084524486 571.3383466025591L1334.9491084524486 586.1935479563742Q1327.0388478037564 589.6794255303744 1319.3162882552026 591.3151065458665Q1311.593728706649 592.9507875613588 1300.9752093273876 592.9507875613588L1300.9752093273876 592.9507875613588Q1286.3077090737108 592.9507875613588 1274.9920141796497 586.9711667998051Q1263.7031337284652 580.9915460382513 1257.4285540952653 569.1127478437745Q1251.1539744620654 557.233949649298 1251.1539744620654 540.0458917651905L1251.1539744620654 540.0458917651905Q1251.1539744620654 523.0723494240985 1256.86545079485 510.89859235797564Q1262.5501126847576 498.72483529185274 1272.8736731923727 492.1821112298836Q1283.197233699988 485.6125727250376 1296.9262284529723 485.6125727250376ZM1296.711712909957 499.5024541352835L1296.711712909957 499.5024541352835Q1284.5647702867109 499.5024541352835 1277.5125718100803 507.33227145534494Q1270.4603733334495 515.1352743325294 1269.1196511896035 529.0519701856522L1269.1196511896035 529.0519701856522L1321.8100314427566 529.0519701856522Q1321.8100314427566 520.1763895933909 1319.1285871550642 513.6068510885448Q1316.420328424495 507.0373125836988 1310.9233676347258 503.2832905809296Q1305.3995924020799 499.5024541352835 1296.711712909957 499.5024541352835ZM1405.0420621327241 485.800273825176L1405.0420621327241 485.800273825176Q1423.9462443609548 485.800273825176 1433.0363404962316 494.11275111702207Q1442.0996221886314 502.39841396599115 1442.0996221886314 520.5517917936677L1442.0996221886314 520.5517917936677L1442.0996221886314 591.0201476742204L1429.73816402237 591.0201476742204L1426.4668019913854 576.3526474205437L1425.6891831479547 576.3526474205437Q1421.2379856303858 581.9568659818206 1416.5186436840472 585.7108879845898Q1411.7993017377087 589.4649099873589 1405.7124232046474 591.2078487743588Q1399.625544671586 592.9507875613588 1390.937665179463 592.9507875613588L1390.937665179463 592.9507875613588Q1381.6598679440478 592.9507875613588 1374.2322672671403 589.6794255303744Q1366.8046665902327 586.3812490565128 1362.5679846156788 579.5435661228976Q1358.3044881982482 572.6790687464054 1358.3044881982482 562.2482504672824L1358.3044881982482 562.2482504672824Q1358.3044881982482 546.803131370175 1370.478245264371 538.4102107496983Q1382.6251878876171 530.0172901292215 1407.938021963432 529.2396712857908L1407.938021963432 529.2396712857908L1425.5014820478161 528.6497535424984L1425.5014820478161 522.4824316808063Q1425.5014820478161 509.5578702141295 1419.8972634865395 504.51675495326805Q1414.2930449252628 499.5024541352835 1404.0767421891553 499.5024541352835L1404.0767421891553 499.5024541352835Q1395.9519659974476 499.5024541352835 1388.6316230920477 501.91575399420657Q1381.284465743771 504.3290538531296 1374.9026283390633 507.4127147839757L1374.9026283390633 507.4127147839757L1369.7006264209401 494.67585441743745Q1376.4578660259247 491.00227574329904 1385.73566326134 488.40127478423756Q1394.9866460538785 485.800273825176 1405.0420621327241 485.800273825176ZM1425.3137809476777 540.4481084083443L1410.056362950709 541.0112117087597Q1390.7499640793246 541.7888305521906 1383.3223634024168 547.2053480133288Q1375.8679482826326 552.5950510315903 1375.8679482826326 562.435951567421L1375.8679482826326 562.435951567421Q1375.8679482826326 571.1238310595438 1381.177207972263 575.199626376836Q1386.4864676618938 579.2486072512513 1394.79894495374 579.2486072512513L1394.79894495374 579.2486072512513Q1407.938021963432 579.2486072512513 1416.6259014555549 572.0087076744824Q1425.3137809476777 564.7688080977132 1425.3137809476777 549.6990912008827L1425.3137809476777 549.6990912008827L1425.3137809476777 540.4481084083443ZM1516.4292578434608 591.0201476742204L1496.9351578719381 591.0201476742204L1457.7324423858774 487.54321261217603L1475.885820213554 487.54321261217603L1497.9004778155074 548.5460701571749Q1499.4289010594919 552.7827521317288 1501.171839846492 558.0115684927287Q1502.9147786334918 563.2135704108516 1504.255500777338 567.9597268000668Q1505.623037364061 572.6790687464054 1506.1861406644764 575.9504307773898L1506.1861406644764 575.9504307773898L1506.9637595079073 575.9504307773898Q1507.741378351338 572.6790687464054 1509.189358266692 567.8524690285592Q1510.6373381820456 563.0258693107132 1512.4607202976763 557.8238673925903Q1514.310916856184 552.5950510315903 1515.6516390000302 548.5460701571749L1515.6516390000302 548.5460701571749L1537.6662966019835 487.54321261217603L1555.8196744296604 487.54321261217603L1516.4292578434608 591.0201476742204ZM1612.1836333569515 485.6125727250376L1612.1836333569515 485.6125727250376Q1625.5104114667822 485.6125727250376 1635.0563531309665 491.4044923864529Q1644.6291092380281 497.19641204786814 1649.7506678275201 507.7076736556218Q1654.8454119741357 518.2457497062524 1654.8454119741357 532.3233322166368L1654.8454119741357 532.3233322166368L1654.8454119741357 542.5664493956212L1584.001653893306 542.5664493956212Q1584.377056093583 560.1299094800056 1592.984492257075 569.3004489439131Q1601.5651139776903 578.4709884078206 1617.0102330747977 578.4709884078206L1617.0102330747977 578.4709884078206Q1626.8511336106283 578.4709884078206 1634.4932498305511 576.64760629219Q1642.1085516075973 574.7974097336821 1650.233327799305 571.3383466025591L1650.233327799305 571.3383466025591L1650.233327799305 586.1935479563742Q1642.2962527077357 589.6794255303744 1634.573693159182 591.3151065458665Q1626.8511336106283 592.9507875613588 1616.2326142313668 592.9507875613588L1616.2326142313668 592.9507875613588Q1601.5651139776903 592.9507875613588 1590.2762335265058 586.9711667998051Q1578.9873530753214 580.9915460382513 1572.7127734421217 569.1127478437745Q1566.4381938089216 557.233949649298 1566.4381938089216 540.0458917651905L1566.4381938089216 540.0458917651905Q1566.4381938089216 523.0723494240985 1572.1228556988292 510.89859235797564Q1577.8343320316137 498.72483529185274 1588.157892539229 492.1821112298836Q1598.481453046844 485.6125727250376 1612.1836333569515 485.6125727250376ZM1611.9959322568131 499.5024541352835L1611.9959322568131 499.5024541352835Q1599.8221751906901 499.5024541352835 1592.7967911569365 507.33227145534494Q1585.744592680306 515.1352743325294 1584.377056093583 529.0519701856522L1584.377056093583 529.0519701856522L1637.0942507896127 529.0519701856522Q1637.0942507896127 520.1763895933909 1634.3859920590437 513.6068510885448Q1631.6777333284742 507.0373125836988 1626.1807725387052 503.2832905809296Q1620.6838117489363 499.5024541352835 1611.9959322568131 499.5024541352835ZM1730.917986415965 485.6125727250376L1730.917986415965 485.6125727250376Q1749.4467664439187 485.6125727250376 1758.9122647794723 494.59541108880666Q1768.3777631150258 503.5514350096988 1768.3777631150258 523.6354527245139L1768.3777631150258 523.6354527245139L1768.3777631150258 591.0201476742204L1751.591921874072 591.0201476742204L1751.591921874072 524.7884737682216Q1751.591921874072 512.2393145018218 1745.9877033127957 506.07199264012957Q1740.3834847515186 499.9046707784374 1728.4242432284111 499.9046707784374L1728.4242432284111 499.9046707784374Q1711.2361853443037 499.9046707784374 1704.6666468394576 509.5578702141295Q1698.0971083346117 519.2110696498216 1698.0971083346117 537.3376330346214L1698.0971083346117 537.3376330346214L1698.0971083346117 591.0201476742204L1681.1235659935194 591.0201476742204L1681.1235659935194 487.54321261217603L1694.825746303627 487.54321261217603L1697.319489491181 501.62079512256037L1698.2848094347503 501.62079512256037Q1701.7706870087502 496.23109210429897 1706.8922455982422 492.66477120166826Q1712.0138041877346 489.0716358561606 1718.1811260494267 487.3555115120376Q1724.3484479111187 485.6125727250376 1730.917986415965 485.6125727250376ZM1797.9272791653946 580.0262260946822L1797.9272791653946 580.0262260946822Q1797.9272791653946 573.0544709466822 1801.3863422965176 570.0780677873438Q1804.8722198705175 567.0748501851285 1809.698819588364 567.0748501851285L1809.698819588364 567.0748501851285Q1814.7131204063483 567.0748501851285 1818.279441308979 570.0780677873438Q1821.8457622116096 573.0544709466822 1821.8457622116096 580.0262260946822L1821.8457622116096 580.0262260946822Q1821.8457622116096 587.1588678999435 1818.279441308979 590.2425288307898Q1814.7131204063483 593.3261897616358 1809.698819588364 593.3261897616358L1809.698819588364 593.3261897616358Q1804.8722198705175 593.3261897616358 1801.3863422965176 590.2425288307898Q1797.9272791653946 587.1588678999435 1797.9272791653946 580.0262260946822ZM1892.126416992024 485.6125727250376L1892.126416992024 485.6125727250376Q1905.4531951018541 485.6125727250376 1914.9991367660389 491.4044923864529Q1924.5718928731 497.19641204786814 1929.6934514625925 507.7076736556218Q1934.7881956092076 518.2457497062524 1934.7881956092076 532.3233322166368L1934.7881956092076 532.3233322166368L1934.7881956092076 542.5664493956212L1863.944437528378 542.5664493956212Q1864.3198397286549 560.1299094800056 1872.9272758921472 569.3004489439131Q1881.5078976127622 578.4709884078206 1896.9530167098699 578.4709884078206L1896.9530167098699 578.4709884078206Q1906.7939172457006 578.4709884078206 1914.4360334656233 576.64760629219Q1922.0513352426694 574.7974097336821 1930.176111434377 571.3383466025591L1930.176111434377 571.3383466025591L1930.176111434377 586.1935479563742Q1922.2390363428078 589.6794255303744 1914.516476794254 591.3151065458665Q1906.7939172457006 592.9507875613588 1896.1753978664394 592.9507875613588L1896.1753978664394 592.9507875613588Q1881.5078976127622 592.9507875613588 1870.2190171615778 586.9711667998051Q1858.9301367103938 580.9915460382513 1852.6555570771936 569.1127478437745Q1846.380977443994 557.233949649298 1846.380977443994 540.0458917651905L1846.380977443994 540.0458917651905Q1846.380977443994 523.0723494240985 1852.0656393339011 510.89859235797564Q1857.777115666686 498.72483529185274 1868.1006761743013 492.1821112298836Q1878.4242366819165 485.6125727250376 1892.126416992024 485.6125727250376ZM1891.938715891885 499.5024541352835L1891.938715891885 499.5024541352835Q1879.7649588257625 499.5024541352835 1872.7395747920089 507.33227145534494Q1865.6873763153783 515.1352743325294 1864.3198397286549 529.0519701856522L1864.3198397286549 529.0519701856522L1917.0370344246846 529.0519701856522Q1917.0370344246846 520.1763895933909 1914.3287756941156 513.6068510885448Q1911.6205169635466 507.0373125836988 1906.1235561737774 503.2832905809296Q1900.6265953840082 499.5024541352835 1891.938715891885 499.5024541352835ZM2000.242250671776 485.800273825176L2000.242250671776 485.800273825176Q2019.173247342883 485.800273825176 2028.236529035283 494.11275111702207Q2037.3266251705597 502.39841396599115 2037.3266251705597 520.5517917936677L2037.3266251705597 520.5517917936677L2037.3266251705597 591.0201476742204L2024.9651670042983 591.0201476742204L2021.6669905304368 576.3526474205437L2020.9161861298833 576.3526474205437Q2016.464988612314 581.9568659818206 2011.7456466659753 585.7108879845898Q2006.9994902767605 589.4649099873589 2000.9126117436988 591.2078487743588Q1994.8525476535144 592.9507875613588 1986.1646681613913 592.9507875613588L1986.1646681613913 592.9507875613588Q1976.8868709259762 592.9507875613588 1969.4592702490684 589.6794255303744Q1962.031669572161 586.3812490565128 1957.7681731547302 579.5435661228976Q1953.5314911801763 572.6790687464054 1953.5314911801763 562.2482504672824L1953.5314911801763 562.2482504672824Q1953.5314911801763 546.803131370175 1965.6784338034224 538.4102107496983Q1977.8521908695454 530.0172901292215 2003.1382105024834 529.2396712857908L2003.1382105024834 529.2396712857908L2020.7016705868675 528.6497535424984L2020.7016705868675 522.4824316808063Q2020.7016705868675 509.5578702141295 2015.1242664684676 504.51675495326805Q2009.5200479071912 499.5024541352835 1999.2769307282067 499.5024541352835L1999.2769307282067 499.5024541352835Q1991.1789689793761 499.5024541352835 1983.831811631099 501.91575399420657Q1976.5114687256994 504.3290538531296 1970.1296313209916 507.4127147839757L1970.1296313209916 507.4127147839757L1964.927629402869 494.67585441743745Q1971.684869007853 491.00227574329904 1980.9358518003912 488.40127478423756Q1990.2136490358068 485.800273825176 2000.242250671776 485.800273825176ZM2020.5139694867296 540.4481084083443L2005.2565514897603 541.0112117087597Q1985.950152618376 541.7888305521906 1978.5225519414682 547.2053480133288Q1971.094951264561 552.5950510315903 1971.094951264561 562.435951567421L1971.094951264561 562.435951567421Q1971.094951264561 571.1238310595438 1976.4042109541913 575.199626376836Q1981.7134706438221 579.2486072512513 1990.0259479356685 579.2486072512513L1990.0259479356685 579.2486072512513Q2003.1382105024834 579.2486072512513 2011.8260899946065 572.0087076744824Q2020.5139694867296 564.7688080977132 2020.5139694867296 549.6990912008827L2020.5139694867296 549.6990912008827L2020.5139694867296 540.4481084083443ZM2117.6358815869435 485.6125727250376L2117.6358815869435 485.6125727250376Q2120.531841417651 485.6125727250376 2123.9104612201427 485.9075315966837Q2127.2890810226354 486.17567602545296 2129.7828242101887 486.76559376874525L2129.7828242101887 486.76559376874525L2127.664483222912 502.39841396599115Q2125.170740035358 501.8353106655758 2122.167522433143 501.4330940224219Q2119.164304830928 501.05769182214505 2116.482860543235 501.05769182214505L2116.482860543235 501.05769182214505Q2110.476425338805 501.05769182214505 2105.0867223205432 503.5514350096988Q2099.670204859405 506.07199264012957 2095.4335228848513 510.6036334863295Q2091.17002646742 515.1352743325294 2088.756726608497 521.517111737237Q2086.343426749574 527.8989491419445 2086.343426749574 535.8092097906367L2086.343426749574 535.8092097906367L2086.343426749574 591.0201476742204L2069.369884408482 591.0201476742204L2069.369884408482 487.54321261217603L2083.2597658187287 487.54321261217603L2085.1904057058664 506.44739484040645L2085.9680245492973 506.44739484040645Q2089.2393865802824 500.6554751789912 2093.8782851979895 495.9361332326528Q2098.5171838156975 491.2167912863144 2104.496804577251 488.40127478423756Q2110.476425338805 485.6125727250376 2117.6358815869435 485.6125727250376ZM2183.653039949927 579.0609061511129L2183.653039949927 579.0609061511129Q2187.5143197242032 579.0609061511129 2191.5633005986183 578.363730636313Q2195.6390959159107 577.69336956439 2198.132839103465 576.9157507209591L2198.132839103465 576.9157507209591L2198.132839103465 589.8671266305128Q2195.4245803728954 591.2078487743588 2190.4102795549115 592.0927253892974Q2185.3959787369267 592.9507875613588 2180.7570801192187 592.9507875613588L2180.7570801192187 592.9507875613588Q2172.6591183703886 592.9507875613588 2165.7946209938964 590.1620855021588Q2158.9569380602807 587.3465690000819 2154.6934416428503 580.401628294959Q2150.4567596682964 573.4566875898361 2150.4567596682964 560.9075283234363L2150.4567596682964 560.9075283234363L2150.4567596682964 500.6554751789912L2135.7892594146197 500.6554751789912L2135.7892594146197 492.55751343016055L2150.6444607684352 485.800273825176L2157.401700373419 463.7856162232226L2167.4303020093885 463.7856162232226L2167.4303020093885 487.54321261217603L2197.355220260034 487.54321261217603L2197.355220260034 500.6554751789912L2167.4303020093885 500.6554751789912L2167.4303020093885 560.5053116802825Q2167.4303020093885 569.9708100158362 2171.9887572984653 574.5024508620361Q2176.520398144665 579.0609061511129 2183.653039949927 579.0609061511129ZM2235.780316902664 444.2915162516998L2235.780316902664 487.3555115120376Q2235.780316902664 491.00227574329904 2235.485358031018 494.8635555175759Q2235.217213602248 498.72483529185274 2234.814996959095 501.8353106655758L2234.814996959095 501.8353106655758L2235.9680180028026 501.8353106655758Q2239.266194476664 496.4187932044374 2244.280495294648 492.9329156304375Q2249.294796112633 489.47385249931443 2255.488932417202 487.62365594080677Q2261.6562542788943 485.800273825176 2268.225792783741 485.800273825176L2268.225792783741 485.800273825176Q2280.77495205014 485.800273825176 2289.167872670617 489.7688113709606Q2297.5607932910934 493.7105344738682 2301.8242897085247 502.0230117657142Q2306.0609716830786 510.3086746146833 2306.0609716830786 523.6354527245139L2306.0609716830786 523.6354527245139L2306.0609716830786 591.0201476742204L2289.2751304421254 591.0201476742204L2289.2751304421254 524.7884737682216Q2289.2751304421254 512.2393145018218 2283.6709118808476 506.07199264012957Q2278.0666933195707 499.9046707784374 2266.1074517964635 499.9046707784374L2266.1074517964635 499.9046707784374Q2254.523612473633 499.9046707784374 2247.9540739687873 504.2486105244988Q2241.3845354639407 508.5925502705603 2238.595833404741 516.985470891037Q2235.780316902664 525.3783915115139 2235.780316902664 537.5521485776367L2235.780316902664 537.5521485776367L2235.780316902664 591.0201476742204L2218.8067745615717 591.0201476742204L2218.8067745615717 444.2915162516998L2235.780316902664 444.2915162516998Z " fill="#609966" transform="matrix(0.3794349001429736,0,0,0.3794349001429736,0,103.32895855268825)"/></g></svg>